<svg width="512" height="512" viewBox="0 0 512 512" fill="none" xmlns="http://www.w3.org/2000/svg">
<g clip-path="url(#clip0_1847_26)">
<path d="M149.333 128C149.333 116.224 158.891 106.667 170.667 106.667H341.333C353.131 106.667 362.667 116.224 362.667 128C362.667 139.776 353.131 149.333 341.333 149.333H170.667C158.891 149.333 149.333 139.776 149.333 128ZM170.667 234.667H298.667C310.464 234.667 320 225.109 320 213.333C320 201.557 310.464 192 298.667 192H170.667C158.891 192 149.333 201.557 149.333 213.333C149.333 225.109 158.891 234.667 170.667 234.667ZM512 271.104V405.333C512 464.149 464.149 512 405.333 512H106.667C47.8507 512 0 464.149 0 405.333V271.104C0 242.176 11.9893 214.08 32.8747 194.069L64 164.245V85.3333C64 38.272 102.272 0 149.333 0H362.667C409.728 0 448 38.272 448 85.3333V164.245L479.125 194.048C500.011 214.059 512 242.133 512 271.083V271.104ZM106.667 85.3333V261.184L210.731 365.269C234.923 389.44 277.077 389.44 301.248 365.269L405.333 261.184V85.3333C405.333 61.8027 386.197 42.6667 362.667 42.6667H149.333C125.803 42.6667 106.667 61.8027 106.667 85.3333ZM469.333 271.104C469.333 266.944 468.907 262.805 468.096 258.752L331.413 395.435C311.275 415.573 284.501 426.667 256 426.667C227.499 426.667 200.725 415.573 180.565 395.435L43.904 258.731C43.0933 262.784 42.6667 266.923 42.6667 271.083V405.312C42.6667 440.597 71.3813 469.312 106.667 469.312H405.333C440.619 469.312 469.333 440.597 469.333 405.312V271.083V271.104Z" fill="#2B2B2B"/>
</g>
<defs>
<clipPath id="clip0_1847_26">
<rect width="512" height="512" fill="white"/>
</clipPath>
</defs>
</svg>
