<svg width="512" height="512" viewBox="0 0 512 512" fill="none" xmlns="http://www.w3.org/2000/svg">
<path d="M276.5 21.3674C276.5 15.7094 278.747 10.2832 282.748 6.28246C286.749 2.28168 292.175 0.0340686 297.833 0.0340686C354.393 0.0961827 408.62 22.5923 448.614 62.5866C488.608 102.581 511.104 156.807 511.166 213.367C511.166 219.025 508.919 224.452 504.918 228.452C500.917 232.453 495.491 234.701 489.833 234.701C484.175 234.701 478.749 232.453 474.748 228.452C470.747 224.452 468.5 219.025 468.5 213.367C468.449 168.119 450.452 124.739 418.456 92.744C386.461 60.7488 343.081 42.7516 297.833 42.7007C292.175 42.7007 286.749 40.4531 282.748 36.4523C278.747 32.4516 276.5 27.0254 276.5 21.3674ZM297.833 128.034C320.465 128.034 342.17 137.025 358.173 153.028C374.176 169.031 383.166 190.736 383.166 213.367C383.166 219.025 385.414 224.452 389.415 228.452C393.416 232.453 398.842 234.701 404.5 234.701C410.158 234.701 415.584 232.453 419.585 228.452C423.585 224.452 425.833 219.025 425.833 213.367C425.799 179.43 412.303 146.892 388.305 122.895C364.308 98.8979 331.77 85.4013 297.833 85.3674C292.175 85.3674 286.749 87.615 282.748 91.6158C278.747 95.6166 276.5 101.043 276.5 106.701C276.5 112.359 278.747 117.785 282.748 121.786C286.749 125.786 292.175 128.034 297.833 128.034ZM491.817 357.133C504.18 369.53 511.122 386.323 511.122 403.831C511.122 421.339 504.18 438.133 491.817 450.53L472.404 472.909C297.684 640.183 -127.49 215.117 37.2037 39.8421L61.737 18.5087C74.1481 6.49118 90.7916 -0.156884 108.067 0.00281194C125.342 0.162508 141.86 7.11713 154.046 19.3621C154.708 20.0234 194.238 71.3727 194.238 71.3727C205.968 83.6955 212.498 100.065 212.47 117.077C212.442 134.09 205.859 150.438 194.089 162.722L169.385 193.783C183.056 227.002 203.157 257.191 228.532 282.617C253.907 308.044 284.056 328.205 317.246 341.943L348.5 317.09C360.786 305.329 377.13 298.754 394.138 298.73C411.146 298.706 427.509 305.236 439.828 316.962C439.828 316.962 491.156 356.471 491.817 357.133ZM462.462 388.151C462.462 388.151 411.412 348.877 410.75 348.215C406.355 343.858 400.417 341.413 394.228 341.413C388.039 341.413 382.1 343.858 377.705 348.215C377.129 348.813 334.1 383.095 334.1 383.095C331.2 385.403 327.749 386.916 324.087 387.485C320.425 388.054 316.677 387.658 313.214 386.338C270.216 370.329 231.161 345.266 198.694 312.846C166.226 280.427 141.106 241.409 125.033 198.434C123.608 194.924 123.143 191.097 123.687 187.348C124.231 183.599 125.763 180.062 128.126 177.101C128.126 177.101 162.409 134.05 162.985 133.495C167.343 129.1 169.788 123.162 169.788 116.973C169.788 110.784 167.343 104.845 162.985 100.45C162.324 99.8101 123.049 48.7167 123.049 48.7167C118.588 44.7169 112.766 42.5748 106.777 42.7295C100.788 42.8842 95.0841 45.324 90.8357 49.5487L66.3024 70.8821C-54.0603 215.607 314.388 563.618 441.214 443.767L460.649 421.367C465.203 417.149 467.939 411.325 468.277 405.126C468.616 398.928 466.53 392.841 462.462 388.151Z" fill="#2B2B2B"/>
</svg>
